<?xml version="1.0" encoding="UTF-8" standalone="no"?>
<svg
   xmlns:dc="http://purl.org/dc/elements/1.1/"
   xmlns:cc="http://creativecommons.org/ns#"
   xmlns:rdf="http://www.w3.org/1999/02/22-rdf-syntax-ns#"
   xmlns:svg="http://www.w3.org/2000/svg"
   xmlns="http://www.w3.org/2000/svg"
   xmlns:xlink="http://www.w3.org/1999/xlink"
   xmlns:sodipodi="http://sodipodi.sourceforge.net/DTD/sodipodi-0.dtd"
   xmlns:inkscape="http://www.inkscape.org/namespaces/inkscape"
   width="977px"
   height="263px"
   viewBox="0 0 977 263"
   version="1.1"
   id="SVGRoot"
   sodipodi:docname="VTVcab.svg"
   inkscape:version="1.0.1 (3bc2e813f5, 2020-09-07)">
  <defs
     id="defs1453">
    <linearGradient
       inkscape:collect="always"
       xlink:href="#linearGradient939"
       id="linearGradient941"
       x1="132.42314"
       y1="265.58762"
       x2="132.6295"
       y2="239.41971"
       gradientUnits="userSpaceOnUse"
       gradientTransform="matrix(9.8461872,0,0,9.8461872,-790.69253,-2354.9123)" />
    <linearGradient
       inkscape:collect="always"
       id="linearGradient939">
      <stop
         style="stop-color:#97999c;stop-opacity:1"
         offset="0"
         id="stop935" />
      <stop
         style="stop-color:#97999c;stop-opacity:0.96078432"
         offset="1"
         id="stop937" />
    </linearGradient>
    <linearGradient
       inkscape:collect="always"
       xlink:href="#linearGradient947"
       id="linearGradient949"
       x1="130.42838"
       y1="265.19443"
       x2="130.44786"
       y2="239.75648"
       gradientUnits="userSpaceOnUse"
       gradientTransform="matrix(9.8461872,0,0,9.8461872,-790.69253,-2354.9123)" />
    <linearGradient
       inkscape:collect="always"
       id="linearGradient947">
      <stop
         style="stop-color:#e6e6e7;stop-opacity:1"
         offset="0"
         id="stop943" />
      <stop
         style="stop-color:#7d7e81;stop-opacity:1"
         offset="1"
         id="stop945" />
    </linearGradient>
    <linearGradient
       inkscape:collect="always"
       xlink:href="#linearGradient1461"
       id="linearGradient1463"
       x1="130.46313"
       y1="275.36594"
       x2="131.18196"
       y2="222.94971"
       gradientUnits="userSpaceOnUse" />
    <linearGradient
       inkscape:collect="always"
       id="linearGradient1461">
      <stop
         style="stop-color:#fcfcfc;stop-opacity:1"
         offset="0"
         id="stop1457" />
      <stop
         style="stop-color:#efefef;stop-opacity:1;"
         offset="0.42922983"
         id="stop1465" />
      <stop
         style="stop-color:#dededf;stop-opacity:1"
         offset="1"
         id="stop1459" />
    </linearGradient>
    <clipPath
       clipPathUnits="userSpaceOnUse"
       id="clipPath1097">
      <use
         x="0"
         y="0"
         xlink:href="#g1093"
         id="use1099"
         width="100%"
         height="100%" />
    </clipPath>
    <linearGradient
       inkscape:collect="always"
       xlink:href="#linearGradient1475"
       id="linearGradient1467"
       gradientUnits="userSpaceOnUse"
       x1="132.47914"
       y1="265.58762"
       x2="132.76596"
       y2="239.41971" />
    <linearGradient
       inkscape:collect="always"
       id="linearGradient1475">
      <stop
         style="stop-color:#ffffff;stop-opacity:1"
         offset="0"
         id="stop1469" />
      <stop
         style="stop-color:#a6a8ab;stop-opacity:1"
         offset="0.10251142"
         id="stop1487" />
      <stop
         style="stop-color:#7c7d7f;stop-opacity:1"
         offset="0.20299117"
         id="stop1485" />
      <stop
         style="stop-color:#6f7072;stop-opacity:1"
         offset="0.25583145"
         id="stop1495" />
      <stop
         style="stop-color:#6d6e71;stop-opacity:1"
         offset="0.30958635"
         id="stop1493" />
      <stop
         style="stop-color:#6f7072;stop-opacity:1"
         offset="0.37491614"
         id="stop1489" />
      <stop
         style="stop-color:#737477;stop-opacity:1"
         offset="0.4503125"
         id="stop1471" />
      <stop
         style="stop-color:#737477;stop-opacity:1"
         offset="0.52342808"
         id="stop1477" />
      <stop
         style="stop-color:#818285;stop-opacity:1"
         offset="0.60481161"
         id="stop1479" />
      <stop
         style="stop-color:#919396;stop-opacity:1"
         offset="0.69584841"
         id="stop1481" />
      <stop
         style="stop-color:#a4a6a9;stop-opacity:1"
         offset="0.7670486"
         id="stop1483" />
      <stop
         style="stop-color:#ffffff;stop-opacity:1"
         offset="1"
         id="stop1473" />
    </linearGradient>
    <filter
       inkscape:collect="always"
       style="color-interpolation-filters:sRGB"
       id="filter2368"
       x="-0.027721645"
       width="1.0554433"
       y="-0.067564815"
       height="1.1351296">
      <feGaussianBlur
         inkscape:collect="always"
         stdDeviation="0.5407958"
         id="feGaussianBlur2370" />
    </filter>
    <filter
       inkscape:collect="always"
       style="color-interpolation-filters:sRGB"
       id="filter2282"
       x="-0.03545469"
       width="1.0709094"
       y="-0.076639563"
       height="1.1532791">
      <feGaussianBlur
         inkscape:collect="always"
         stdDeviation="1.2908204"
         id="feGaussianBlur2284" />
    </filter>
    <filter
       inkscape:collect="always"
       style="color-interpolation-filters:sRGB"
       id="filter2034"
       x="-0.18351048"
       width="1.367021"
       y="-0.18154016"
       height="1.3630803">
      <feGaussianBlur
         inkscape:collect="always"
         stdDeviation="0.35362219"
         id="feGaussianBlur2036" />
    </filter>
    <linearGradient
       inkscape:collect="always"
       xlink:href="#linearGradient1461"
       id="linearGradient2223"
       gradientUnits="userSpaceOnUse"
       x1="130.46313"
       y1="275.36594"
       x2="131.18196"
       y2="222.94971" />
    <linearGradient
       inkscape:collect="always"
       xlink:href="#linearGradient1461"
       id="linearGradient2225"
       gradientUnits="userSpaceOnUse"
       x1="130.46313"
       y1="275.36594"
       x2="131.18196"
       y2="222.94971" />
  </defs>
  <sodipodi:namedview
     id="base"
     pagecolor="#ffffff"
     bordercolor="#666666"
     borderopacity="1.0"
     inkscape:pageopacity="0.0"
     inkscape:pageshadow="2"
     inkscape:zoom="0.65726744"
     inkscape:cx="291.99514"
     inkscape:cy="90.570544"
     inkscape:document-units="px"
     inkscape:current-layer="layer1"
     inkscape:document-rotation="0"
     showgrid="false"
     inkscape:window-width="1920"
     inkscape:window-height="1001"
     inkscape:window-x="-9"
     inkscape:window-y="-9"
     inkscape:window-maximized="1" />
  <metadata
     id="metadata1456">
    <rdf:RDF>
      <cc:Work
         rdf:about="">
        <dc:format>image/svg+xml</dc:format>
        <dc:type
           rdf:resource="http://purl.org/dc/dcmitype/StillImage" />
        <dc:title></dc:title>
      </cc:Work>
    </rdf:RDF>
  </metadata>
  <g
     inkscape:label="Lớp 1"
     inkscape:groupmode="layer"
     id="layer1">
    <path
       style="fill:url(#linearGradient941);fill-opacity:1;stroke:none;stroke-width:2.60513px;stroke-linecap:butt;stroke-linejoin:miter;stroke-opacity:1"
       d="m 143.94113,2.4587973 c 0,0 -12.08168,0.6193126 -17.7199,4.1511218 -5.63806,3.5316639 -8.85995,6.8153519 -12.01986,12.9492369 L 3.7305943,241.73997 c 0,0 -2.4783129,7.15372 2.4163349,12.76333 4.8948088,5.60955 14.9318558,5.60955 14.9318558,5.60955 H 817.11301 c 0,0 11.27625,0.33869 20.26022,-6.16727 8.98384,-6.50557 12.01981,-15.36546 12.01981,-15.36546 L 958.25289,21.046111 c 0,0 2.54031,-7.063151 -1.7348,-11.5860919 -4.27513,-4.5229572 -8.98386,-7.0012218 -15.79929,-7.0012218 z"
       id="path855"
       sodipodi:nodetypes="csccsccsccssc" />
    <path
       style="fill:url(#linearGradient949);fill-opacity:1;stroke:none;stroke-width:2.60513px;stroke-linecap:butt;stroke-linejoin:miter;stroke-opacity:1;fill-rule:evenodd"
       d="m 844.8965,240.49648 c 0,0 -4.1866,8.91917 -12.37765,12.55982 -8.19124,3.64039 -13.74301,3.18533 -13.74301,3.18533 H 19.047357 c 0,0 -11.6496001,-0.36432 -12.6507452,-8.28214 0,0 -0.9100294,-3.27641 1.9111745,-8.91927 C 11.129312,233.39748 116.06683,22.61206 116.06683,22.61206 c 0,0 4.91928,-9.656356 11.29576,-12.386702 0,0 8.27204,-4.6326339 16.2812,-4.4506602 h 800.45569 c 0,0 9.25826,1.4164617 10.69641,6.7197132 1.43823,5.303251 -0.35938,9.797553 -0.35938,9.797553 z"
       id="path857"
       sodipodi:nodetypes="cscccsccc"
       inkscape:export-xdpi="158"
       inkscape:export-ydpi="158" />
    <g
       id="g1095"
       clip-path="url(#clipPath1097)"
       style="fill:url(#linearGradient1463);fill-opacity:1"
       transform="matrix(9.8461872,0,0,9.8461872,-790.69256,-2354.9124)">
      <g
         inkscape:label="Clip"
         id="g1093"
         style="fill:url(#linearGradient2225);fill-opacity:1">
        <g
           id="g1102"
           style="fill:url(#linearGradient2223);fill-opacity:1">
          <path
             style="opacity:0.99;fill:url(#linearGradient1467);fill-opacity:1;fill-rule:evenodd;stroke:none;stroke-width:0.165;stroke-linecap:butt;stroke-linejoin:miter;stroke-miterlimit:4;stroke-dasharray:none;stroke-opacity:1"
             d="m 174.41517,239.99198 c 0,0 1.369,0.0802 1.64983,1.01798 0,0 0.17551,0.40619 -0.16549,1.07816 l -10.8305,21.47197 c 0,0 -0.6737,1.10821 -1.74053,1.09953 H 82.848159 c 0,0 -0.650504,-0.17346 -0.624483,-0.80662 0.02602,-0.63316 0.199487,-0.98877 0.199487,-0.98877 L 92.961324,241.8573 c 0,0 0.763258,-1.86531 2.914257,-1.86531 2.150999,0 78.539589,-10e-6 78.539589,-10e-6 z"
             id="path865" />
        </g>
      </g>
    </g>
    <path
       style="fill:#000000;fill-opacity:1;stroke:none;stroke-width:0.1;stroke-linecap:butt;stroke-linejoin:miter;stroke-miterlimit:4;stroke-dasharray:none;stroke-opacity:1;filter:url(#filter2368)"
       d="m 138.33477,243.15606 c 0,0 1.18818,0.16492 1.44401,0.90961 0.25582,0.74474 -0.25015,1.47812 -0.25015,1.47812 l -8.68109,15.55435 c 0,0 -0.76745,1.26777 -2.22287,1.26208 -1.50085,-0.006 -2.31382,-1.41558 -2.31382,-1.41558 l -4.90621,-8.66404 v 8.82891 c 0,0 0,0.39464 -0.39708,0.78689 -0.22128,0.21859 -0.50351,0.46951 -0.9446,0.46951 h -6.57762 c 0,0 -0.55145,-0.13076 -0.89825,-0.55146 -0.33209,-0.40286 -0.34678,-0.73906 -0.34678,-1.03467 v -9.57934 l -5.77603,10.0512 c 0,0 -0.82434,1.11427 -2.08074,1.11427 -1.2564,0 -1.97272,-0.85845 -2.06936,-1.02331 -0.0966,-0.16487 -9.192759,-16.28772 -9.192759,-16.28772 0,0 -0.380899,-0.90961 0.426381,-1.54066 0,0 0.392269,-0.35816 1.063107,-0.35816 0.670838,0 5.741921,0 5.741921,0 0,0 0.86981,0.006 1.37579,0.88687 0.50597,0.88119 2.7004,4.99149 2.7004,4.99149 l 2.67767,-5.00854 c 0,0 0.51734,-0.86982 1.38716,-0.86982 0.86981,0 15.54297,0 15.54297,0 0,0 1.11428,0.0341 1.64299,0.9153 0.52871,0.88118 2.98466,4.6049 2.98466,4.6049 l 2.70041,-4.74134 c 0,0 0.38658,-0.77886 1.2564,-0.77886 0.86981,0 5.71349,0 5.71349,0 z"
       id="path2286"
       sodipodi:nodetypes="csccscccsccsc"
       transform="matrix(9.8461872,0,0,9.8461872,-790.69256,-2354.9124)" />
    <path
       style="fill:#ffffff;fill-opacity:1;stroke:none;stroke-width:0.984619;stroke-linecap:butt;stroke-linejoin:miter;stroke-miterlimit:4;stroke-dasharray:none;stroke-opacity:1"
       d="m 571.37742,39.247569 c 0,0 11.69918,1.623838 14.21806,8.956215 2.51888,7.33286 -2.46302,14.553854 -2.46302,14.553854 L 497.65682,215.90869 c 0,0 -7.55648,12.48269 -21.88674,12.42665 -14.77764,-0.0592 -22.78245,-13.93805 -22.78245,-13.93805 l -48.30738,-85.30776 v 86.9311 c 0,0 0,3.8857 -3.90976,7.74787 -2.17873,2.15228 -4.9576,4.62288 -9.30072,4.62288 h -64.76438 c 0,0 -5.42975,-1.28748 -8.84433,-5.42978 -3.26986,-3.96664 -3.41458,-7.27694 -3.41458,-10.18757 v -94.31997 l -56.87177,98.966 c 0,0 -8.1167,10.97132 -20.48733,10.97132 -12.3708,0 -19.42389,-8.45247 -20.37545,-10.0757 -0.95108,-1.62334 -90.51356,-160.371941 -90.51356,-160.371941 0,0 -3.75039,-8.9562 4.19824,-15.169641 0,0 3.86243,-3.526529 10.46751,-3.526529 6.60524,0 56.53612,0 56.53612,0 0,0 8.56423,0.05908 13.54629,8.73229 4.98174,8.676397 26.58854,49.147157 26.58854,49.147157 L 263.9,47.811987 c 0,0 5.09378,-8.564418 13.65817,-8.564418 8.56439,0 153.039,0 153.039,0 0,0 10.97138,0.335775 16.17721,9.012237 5.20583,8.676252 29.38753,45.340698 29.38753,45.340698 l 26.5887,-46.684106 c 0,0 3.80641,-7.668829 12.37079,-7.668829 8.56423,0 56.25602,0 56.25602,0 z"
       id="path875"
       sodipodi:nodetypes="csccscccsccsc" />
    <path
       style="fill:#293088;fill-opacity:1;stroke:none;stroke-width:2.60513px;stroke-linecap:butt;stroke-linejoin:miter;stroke-opacity:1"
       d="m 572.18506,45.5977 c 0,0 6.44281,0.760107 7.41627,6.322427 0,0 0.76498,1.738231 -1.83085,6.095265 -2.59583,4.357049 -85.33349,153.516648 -85.33349,153.516648 0,0 -6.76734,9.89611 -15.96809,9.66433 -9.20091,-0.23139 -14.5777,-6.28067 -16.87201,-9.66433 -2.29447,-3.38365 -55.41343,-96.75907 -55.41343,-96.75907 0,0 -2.50294,-6.16479 4.00941,-6.72101 h 59.37648 c 0,0 7.13809,1.08928 13.16379,-9.664328 6.02587,-10.753512 26.79138,-47.278628 26.79138,-47.278628 0,0 2.78112,-5.511223 8.15774,-5.511223 5.37695,0 56.5028,-8.1e-5 56.5028,-8.1e-5 z"
       id="path871" />
    <path
       style="fill:#129848;fill-opacity:1;stroke:none;stroke-width:1.62463;stroke-linecap:butt;stroke-linejoin:miter;stroke-miterlimit:4;stroke-dasharray:none;stroke-opacity:1"
       d="m 402.35084,102.88557 c 0,0 -2.74538,0.34067 -4.1654,1.98557 -1.42002,1.64479 -1.56764,4.55573 -1.56764,4.55573 v 107.13619 c 0,0 -0.55828,4.31754 -4.97578,4.31754 -4.41798,0 -64.46173,0 -64.46173,0 0,0 -5.1878,-0.80344 -5.1878,-6.12491 0,-5.32157 0,-103.08525 0,-103.08525 0,0 -0.30135,-7.43014 3.64817,-13.722353 3.94936,-6.29229 27.47828,-46.622675 27.47828,-46.622675 0,0 2.91184,-5.727631 9.47168,-5.727631 6.56001,0 68.67897,0 68.67897,0 0,0 5.15431,-0.497225 8.30038,4.288423 3.14606,4.78613 29.58682,46.689627 29.58682,46.689627 0,0 1.53963,1.789746 -0.26787,4.049739 -1.80735,2.26008 -4.78615,2.26008 -4.78615,2.26008 z"
       id="path885"
       sodipodi:nodetypes="csc" />
    <path
       style="fill:#dc1f26;fill-opacity:1;stroke:none;stroke-width:2.60513px;stroke-linecap:butt;stroke-linejoin:miter;stroke-opacity:1"
       d="m 340.88917,45.5977 c 0,0 3.42231,8.1e-5 3.45289,4.366193 0.0209,2.295631 -1.20656,4.80482 -1.20656,4.80482 L 253.34588,211.41263 c 0,0 -6.00075,9.76613 -15.88454,9.76613 -9.88395,0 -14.82593,-6.47151 -14.82593,-6.47151 L 132.7397,56.036412 c 0,0 -2.00036,-4.151846 0.35303,-7.295223 2.35323,-3.143408 6.23611,-3.143408 6.23611,-3.143408 h 57.77343 c 0,0 4.82413,-0.268792 7.53056,4.202378 2.70626,4.47125 29.18082,53.085491 29.18082,53.085491 0,0 1.94144,3.04061 3.70645,2.92295 1.765,-0.118 3.52984,-2.92295 3.52984,-2.92295 l 28.71028,-52.614861 c 0,0 2.82394,-4.673008 7.88359,-4.673008 z"
       id="path893"
       sodipodi:nodetypes="csccsccsccscsccscc" />
    <path
       id="path2032"
       style="fill:#000000;fill-opacity:1;stroke:none;stroke-width:0.245669;stroke-linecap:butt;stroke-linejoin:miter;stroke-miterlimit:4;stroke-dasharray:none;stroke-opacity:1;filter:url(#filter2282)"
       d="m 282.32449,54.037953 c -3.1598,-0.0703 -4.03711,2.59707 -4.03711,3.61524 v 23.945314 c 0,0 1.1e-4,4.63212 4.16602,8.78711 2.14987,2.14416 5.5282,4.03125 9.91211,4.03125 0,0 3.75116,0.15963 6.83007,-1.42187 1.61825,-0.83131 3.26598,-1.84216 4.4043,-3.46289 0,0 3.37136,-4.17667 3.58203,-7.72266 0.21052,-3.54603 -0.42111,-6.4611 -1.29883,-8.04102 -0.87775,-1.57988 -3.09086,-6.00259 -9.62109,-7.93359 0,0 -5.05542,-0.91281 -7.05664,0.14062 0,0 -2.70117,0.93834 -2.70117,3.71875 0,0 -0.38938,3.35849 3.61719,3.63477 4.00652,0.27628 4.9734,-0.19134 7.20117,1.89844 2.2278,2.08962 2.02148,5.0957 2.02148,5.0957 0,0 0.13671,3.506 -4.00781,5.69922 -4.14467,2.19322 -7.49414,-1.64063 -7.49414,-1.64063 0,0 -1.72656,-1.7268 -1.72656,-4.14453 V 57.127803 c 0,0 -0.63122,-3.01966 -3.79102,-3.08985 z m -42.49023,0.11524 c -1.26779,-0.0159 -2.98312,0.117 -5.23047,0.58398 -5.9929,1.24528 -10.39063,6.83008 -10.39063,6.83008 0,0 -3.87271,4.299774 -4.30078,10.214854 -0.42807,5.91511 1.30469,10.3125 1.30469,10.3125 0,0 1.16712,3.75591 6.61523,8.40624 5.44812,4.65037 13.5625,3.91602 13.5625,3.91602 2.68517,0 4.06641,-1.89258 4.06641,-1.89258 0,0 1.37398,-1.39803 0.25195,-3.67773 -1.10139,-2.23767 -4.18359,-2.08203 -4.18359,-2.08203 -3.40505,0.0195 -4.96094,-0.4668 -4.96094,-0.4668 -5.99293,-1.71224 -7.90039,-6.94531 -7.90039,-6.94531 0,0 -0.93423,-2.00497 -0.95312,-5.89649 -0.0195,-3.89147 2.56836,-6.86914 2.56836,-6.86914 4.65033,-5.175684 8.52349,-4.745464 12.14257,-4.726564 3.61924,0.0195 3.30664,-3.69727 3.30664,-3.69727 -0.0389,-2.58788 -2.91796,-3.54101 -2.91796,-3.54101 0,0 -0.8675,-0.44216 -2.98047,-0.46875 z m 20.59179,11.451174 c -0.72025,0.0196 -1.48066,0.087 -2.27929,0.21484 -7.48264,1.19827 -10.73243,8.48047 -10.73242,8.48047 0,0 -1.59097,3.09277 -0.61329,9.20899 0.97769,6.11622 6.63868,8.95703 6.63868,8.95703 4.0244,2.41013 10.0039,1.95117 10.0039,1.95117 2.47831,0 3.6836,-2.22263 3.6836,-3.99609 0,-1.47787 -1.02344,-2.4336 -1.02344,-2.4336 -1.18231,-1.31886 -4.91016,-1.22851 -4.91016,-1.22851 0,0 -7.09466,-0.18073 -6.93555,-6.6836 0.15912,-6.50267 6.43555,-6.7539 6.43555,-6.7539 6.11622,0.2502 6.70703,6.11719 6.70703,6.11718 v 11.75391 c 0,0 -0.0308,3.22461 4.125,3.22461 3.67321,0 3.67383,-2.57812 3.67383,-2.57812 v -10.71875 c 0,0 0.0911,-3.97728 -1.20508,-7.29688 -1.296,-3.31956 -5.48047,-6.16211 -5.48047,-6.16211 0,0 -3.04612,-2.19371 -8.08789,-2.05664 z"
       transform="matrix(2.605137,0,0,2.605137,-25.088344,-17.577658)" />
    <path
       id="path895"
       style="fill:#ffffff;fill-opacity:1;stroke:none;stroke-width:0.64;stroke-linecap:butt;stroke-linejoin:miter;stroke-miterlimit:4;stroke-dasharray:none;stroke-opacity:1"
       d="m 710.4057,123.19861 c -8.23164,-0.18315 -10.51726,6.76572 -10.51726,9.4182 v 62.38082 c 0,0 3.2e-4,12.06732 10.85306,22.89165 5.60072,5.58583 14.40175,10.50194 25.82243,10.50194 0,0 9.77223,0.41588 17.79327,-3.70416 4.21576,-2.16568 8.50832,-4.79907 11.47383,-9.0213 0,0 8.78284,-10.8808 9.33165,-20.1186 0.54844,-9.23788 -1.09704,-16.83203 -3.38362,-20.94795 -2.28667,-4.1158 -8.05211,-15.63759 -25.06427,-20.6681 0,0 -13.17007,-2.37799 -18.38346,0.36633 0,0 -7.03699,2.4445 -7.03699,9.68788 0,0 -1.01435,8.74934 9.42322,9.46905 10.43757,0.71975 12.95645,-0.49844 18.76016,4.94571 5.80368,5.44374 5.26618,13.27499 5.26618,13.27499 0,0 0.35617,9.13362 -10.44094,14.84726 -10.79736,5.71364 -19.52321,-4.27408 -19.52321,-4.27408 0,0 -4.49799,-4.49855 -4.49799,-10.79706 V 131.2481 c 0,0 -1.64443,-7.86663 -9.87606,-8.04949 z m -110.69293,0.30022 c -3.3027,-0.0414 -7.77139,0.3048 -13.62598,1.52135 -15.61232,3.24412 -27.06906,17.79329 -27.06906,17.79329 0,0 -10.08889,11.20149 -11.20417,26.6111 -1.11512,15.40966 3.39897,26.86549 3.39897,26.86549 0,0 3.04046,9.78466 17.23357,21.89941 14.19311,12.11484 35.3321,10.20175 35.3321,10.20175 6.99529,0 10.59356,-4.93043 10.59356,-4.93043 0,0 3.57942,-3.64204 0.65632,-9.58099 -2.86918,-5.82943 -10.89878,-5.42397 -10.89878,-5.42397 -8.87057,0.0507 -12.92393,-1.21607 -12.92393,-1.21607 -15.61233,-4.46063 -20.58151,-18.09347 -20.58151,-18.09347 0,0 -2.43388,-5.22323 -2.48298,-15.36118 -0.0515,-10.13782 6.69088,-17.89507 6.69088,-17.89507 12.11468,-13.48337 22.20485,-12.36258 31.63306,-12.31334 9.42854,0.0509 8.61429,-9.6319 8.61429,-9.6319 -0.10142,-6.74179 -7.60171,-9.22482 -7.60171,-9.22482 0,0 -2.26003,-1.15188 -7.76463,-1.22115 z m 53.64456,29.83188 c -1.8764,0.051 -3.85744,0.22665 -5.93797,0.55968 -19.49327,3.12166 -27.95945,22.0928 -27.95945,22.0928 0,0 -4.14464,8.0571 -1.59759,23.99068 2.54689,15.93359 17.29459,23.33429 17.29459,23.33429 10.48409,6.27872 26.06164,5.08306 26.06164,5.08306 6.45633,0 9.59628,-5.79024 9.59628,-10.41035 0,-3.85007 -2.66634,-6.33986 -2.66634,-6.33986 -3.08006,-3.43581 -12.7916,-3.20044 -12.7916,-3.20044 0,0 -18.48247,-0.47084 -18.0681,-17.4117 0.41452,-16.94034 16.76559,-17.59483 16.76559,-17.59483 15.93349,0.6518 17.47263,15.93612 17.47263,15.93609 v 30.62054 c 0,0 -0.0805,8.40055 10.74617,8.40055 9.56924,0 9.57085,-6.71635 9.57085,-6.71635 v -27.92381 c 0,0 0.23745,-10.36135 -3.13931,-19.00938 -3.37627,-8.6479 -14.27746,-16.05315 -14.27746,-16.05315 0,0 -7.93543,-5.71491 -21.06993,-5.35782 z" />
    <ellipse
       style="fill:#000000;fill-opacity:1;stroke:none;stroke-width:0.065;stroke-miterlimit:4;stroke-dasharray:none;stroke-opacity:1;filter:url(#filter2034)"
       id="ellipse1606"
       cx="162.451"
       cy="260.0144"
       rx="2.3123837"
       ry="2.3374808"
       transform="matrix(9.8461872,0,0,9.8461872,-790.69256,-2354.9124)" />
    <ellipse
       style="fill:#ffffff;fill-opacity:1;stroke:none;stroke-width:0.643273;stroke-miterlimit:4;stroke-dasharray:none;stroke-opacity:1"
       id="path911"
       cx="808.83051"
       cy="205.23796"
       rx="22.768162"
       ry="23.015274" />
    <ellipse
       style="fill:#e62a2d;fill-opacity:1;stroke:none;stroke-width:0.633964;stroke-miterlimit:4;stroke-dasharray:none;stroke-opacity:1"
       id="path913"
       cx="808.87341"
       cy="205.15239"
       rx="18.310661"
       ry="18.429285" />
    <path
       id="path915"
       style="fill:#ffffff;fill-opacity:1;stroke:none;stroke-width:0.645012;stroke-miterlimit:4;stroke-dasharray:none;stroke-opacity:1"
       d="m 808.31713,191.41049 c -0.54366,0.0477 -1.15469,0.18393 -1.80629,0.46814 v 11.76887 c 0,0 2.09458,0.94229 4.49792,-0.061 v -11.6468 c 0,0 -1.06066,-0.67244 -2.69163,-0.52915 z m -3.39381,3.04272 a 12.413474,12.373933 0 0 0 -8.58372,11.76893 12.413474,12.373933 0 0 0 12.41511,12.36931 12.413474,12.373933 0 0 0 12.4151,-12.36931 12.413474,12.373933 0 0 0 -7.99349,-11.5603 v 5.91751 a 7.1995965,7.0018899 0 0 1 2.93585,5.64279 7.1995965,7.0018899 0 0 1 -7.19974,7.00129 7.1995965,7.0018899 0 0 1 -7.19973,-7.00129 7.1995965,7.0018899 0 0 1 3.21062,-5.83104 z" />
  </g>
</svg>
